<svg xmlns="http://www.w3.org/2000/svg" version="1.1" xmlns:xlink="http://www.w3.org/1999/xlink" xmlns:svgjs="http://svgjs.dev/svgjs" width="100%" height="100%" viewBox="0 0 1000 600"><rect width="1000" height="600" x="0" y="0" fill="#343434"/><g><rect width="333.3333333333333" height="333.3333333333333" rx="13.333333333333334" ry="13.333333333333334" y="77.77780045403293" fill="#343434" transform="matrix(2.25000013732911,0,0,2.25000013732911,0,-250.00003738403575)" x="55.555564880371094"/><path d="M162.08160739474744 319.44445800781193L162.08160739474744 305.56945800781193L178.73785739474744 305.56945800781193L178.73785739474744 183.31945800781193L162.08160739474744 183.31945800781193L162.08160739474744 169.44445800781193L211.80035739474744 169.44445800781193Q247.89410739474744 169.44445800781193 265.11285739474744 187.3507080078119Q282.36285739474744 205.2882080078119 282.36285739474744 240.5694580078119L282.36285739474744 240.5694580078119Q282.36285739474744 279.44445800781193 262.76910739474744 299.44445800781193Q243.17535739474744 319.44445800781193 206.80035739474744 319.44445800781193L206.80035739474744 319.44445800781193L162.08160739474744 319.44445800781193ZM195.39410739474744 183.31945800781193L195.39410739474744 305.56945800781193L208.73785739474744 305.56945800781193Q235.67535739474744 305.56945800781193 250.26910739474744 290.28820800781193Q264.8628573947475 275.00695800781193 264.8628573947475 242.2257080078119L264.8628573947475 242.2257080078119Q264.8628573947475 211.6632080078119 251.51910739474744 197.5069580078119Q238.17535739474744 183.31945800781193 208.73785739474744 183.31945800781193L208.73785739474744 183.31945800781193L195.39410739474744 183.31945800781193Z " fill="#ffffff" transform="matrix(2.25000013732911,0,0,2.25000013732911,0,-250.00003738403575)"/><path d="MNaN 244.4444580078119 " fill="black" transform="matrix(2.25000013732911,0,0,2.25000013732911,0,-250.00003738403575)"/></g></svg>